<svg width="41" height="40" viewBox="0 0 41 40" fill="none" xmlns="http://www.w3.org/2000/svg">
<path fill-rule="evenodd" clip-rule="evenodd" d="M33.8337 20.0003C33.8337 27.3641 27.8641 33.3337 20.5003 33.3337C18.3674 33.3337 16.3515 32.8328 14.5637 31.9424C14.0886 31.7057 13.5456 31.627 13.0328 31.7642L10.0648 32.5583C8.77634 32.9031 7.5976 31.7243 7.94234 30.4359L8.73648 27.4678C8.87367 26.9551 8.79491 26.4121 8.55827 25.937C7.66781 24.1492 7.16699 22.1332 7.16699 20.0003C7.16699 12.6365 13.1365 6.66699 20.5003 6.66699C27.8641 6.66699 33.8337 12.6365 33.8337 20.0003ZM20.5003 13.667C21.0526 13.667 21.5003 14.1147 21.5003 14.667V25.3337C21.5003 25.8859 21.0526 26.3337 20.5003 26.3337C19.948 26.3337 19.5003 25.8859 19.5003 25.3337V14.667C19.5003 14.1147 19.948 13.667 20.5003 13.667ZM16.167 17.3337C16.167 16.7814 15.7193 16.3337 15.167 16.3337C14.6147 16.3337 14.167 16.7814 14.167 17.3337V22.667C14.167 23.2193 14.6147 23.667 15.167 23.667C15.7193 23.667 16.167 23.2193 16.167 22.667V17.3337ZM25.8337 16.3337C26.3859 16.3337 26.8337 16.7814 26.8337 17.3337V22.667C26.8337 23.2193 26.3859 23.667 25.8337 23.667C25.2814 23.667 24.8337 23.2193 24.8337 22.667V17.3337C24.8337 16.7814 25.2814 16.3337 25.8337 16.3337Z" fill="white"/>
</svg>