<svg width="27" height="20" viewBox="0 0 27 20" fill="none" xmlns="http://www.w3.org/2000/svg">
<path fill-rule="evenodd" clip-rule="evenodd" d="M0.166656 0H38.1667V1.54167H0.166656V0ZM0.166656 3.07917H38.1667V4.62083H0.166656V3.07917ZM0.166656 6.15417H38.1667V7.69583H0.166656V6.15417ZM0.166656 9.22917H38.1667V10.7708H0.166656V9.22917ZM0.166656 12.3125H38.1667V13.8458H0.166656V12.3125ZM0.166656 15.3833H38.1667V16.925H0.166656V15.3833ZM0.166656 18.4583H38.1667V20H0.166656V18.4583Z" fill="#BD3D44"/>
<path fill-rule="evenodd" clip-rule="evenodd" d="M0.166656 1.54175H38.1667V3.07925H0.166656V1.54175ZM0.166656 4.61675H38.1667V6.15425H0.166656V4.61675ZM0.166656 7.69175H38.1667V9.23342H0.166656V7.69175ZM0.166656 10.7709H38.1667V12.3126H0.166656V10.7709ZM0.166656 13.8459H38.1667V15.3876H0.166656V13.8459ZM0.166656 16.9209H38.1667V18.4626H0.166656V16.9209Z" fill="white"/>
<path fill-rule="evenodd" clip-rule="evenodd" d="M0.166656 0H15.3667V10.7708H0.166656V0Z" fill="#192F5D"/>
<path fill-rule="evenodd" clip-rule="evenodd" d="M1.43333 0.458252L1.57499 0.887419H2.01666L1.65833 1.14992L1.79583 1.57909L1.43333 1.31242L1.07499 1.57492L1.20833 1.14992L0.845825 0.887419H1.29999L1.43333 0.458252ZM3.96666 0.458252L4.10416 0.887419H4.55416L4.19166 1.14992L4.32499 1.57909L3.96666 1.31242L3.60416 1.57492L3.74166 1.14992L3.38333 0.887419H3.82499L3.96666 0.458252ZM6.49999 0.458252L6.63749 0.887419H7.08333L6.72499 1.14992L6.86249 1.57909L6.49999 1.31242L6.13749 1.57492L6.27499 1.14992L5.91249 0.887419H6.36249L6.49999 0.458252ZM9.03333 0.458252L9.17083 0.887419H9.62083L9.25833 1.14992L9.39583 1.57909L9.03333 1.31242L8.67083 1.57492L8.81249 1.14992L8.44583 0.887419H8.89166L9.03333 0.458252ZM11.5667 0.458252L11.7042 0.887419H12.15L11.7917 1.14992L11.9292 1.57909L11.5667 1.31242L11.2042 1.57492L11.3417 1.14992L10.9833 0.887419H11.4292L11.5667 0.458252ZM14.1 0.458252L14.2375 0.887419H14.6875L14.3208 1.14992L14.4625 1.57909L14.1 1.31242L13.7375 1.57492L13.8792 1.14992L13.5125 0.887419H13.9625L14.1 0.458252ZM2.69999 1.54159L2.83749 1.96659H3.29166L2.92916 2.22492L3.06249 2.65409L2.70833 2.39159L2.34583 2.65409L2.47499 2.22492L2.12499 1.96659H2.57083L2.69999 1.54159ZM5.23333 1.54159L5.37499 1.96659H5.82083L5.45416 2.22492L5.59583 2.65409L5.23333 2.39159L4.87083 2.65409L5.00833 2.22492L4.64583 1.96659H5.09583L5.23333 1.54159ZM7.76666 1.54159L7.90416 1.96659H8.35416L7.99166 2.22492L8.12916 2.65409L7.76666 2.39159L7.40416 2.65409L7.54166 2.22492L7.18333 1.96659H7.62499L7.76666 1.54159ZM10.3 1.54159L10.4417 1.96659H10.8875L10.5208 2.22492L10.6625 2.65409L10.3 2.39159L9.94166 2.65409L10.075 2.22492L9.71249 1.96659H10.1667L10.3 1.54159ZM12.8333 1.54159L12.9708 1.96659H13.4208L13.0583 2.22492L13.1958 2.65409L12.8333 2.39159L12.4708 2.65409L12.6083 2.22492L12.25 1.96659H12.6958L12.8333 1.54159ZM1.43333 2.60825L1.57499 3.04159H2.01666L1.65833 3.30409L1.79583 3.72909L1.43333 3.46659L1.07499 3.72909L1.20833 3.30409L0.845825 3.04159H1.29999L1.43333 2.60825ZM3.96666 2.60825L4.10416 3.04159H4.55416L4.19166 3.30409L4.32499 3.72909L3.96666 3.46659L3.60416 3.72909L3.74166 3.29992L3.38333 3.03742H3.82499L3.96666 2.60825ZM6.49999 2.60825L6.63749 3.03742H7.08333L6.72499 3.29992L6.86249 3.72492L6.49999 3.46242L6.13749 3.72492L6.27499 3.29575L5.91249 3.03325H6.36249L6.49999 2.60825ZM9.03333 2.60825L9.17083 3.03742H9.62083L9.25833 3.29992L9.39583 3.72492L9.03333 3.46242L8.67083 3.72492L8.81249 3.29575L8.44583 3.03325H8.89166L9.03333 2.60825ZM11.5667 2.60825L11.7042 3.03742H12.15L11.7917 3.29992L11.9292 3.72492L11.5667 3.46242L11.2042 3.72492L11.3417 3.29575L10.9833 3.03325H11.4292L11.5667 2.60825ZM14.1 2.60825L14.2375 3.03742H14.6875L14.3208 3.29992L14.4625 3.72492L14.1 3.46242L13.7375 3.72492L13.8792 3.29575L13.5125 3.03325H13.9625L14.1 2.60825ZM2.69999 3.69159L2.83749 4.11659H3.29166L2.92916 4.37909L3.06666 4.80825L2.70416 4.54159L2.34166 4.80409L2.47916 4.37909L2.12083 4.11659H2.56666L2.69999 3.69159ZM5.23333 3.69159L5.37499 4.11659H5.82083L5.45416 4.37909L5.59583 4.80825L5.23333 4.54159L4.87083 4.80409L5.00833 4.37909L4.64583 4.11659H5.09583L5.23333 3.69159ZM7.76666 3.69159L7.90416 4.11659H8.35416L7.99166 4.37909L8.12916 4.80825L7.76666 4.54159L7.40416 4.80409L7.54166 4.37909L7.18333 4.11659H7.62499L7.76666 3.69159ZM10.3 3.69159L10.4417 4.11659H10.8875L10.525 4.37909L10.6625 4.80825L10.3 4.54159L9.94166 4.80409L10.075 4.37909L9.71249 4.11659H10.1667L10.3 3.69159ZM12.8333 3.69159L12.9708 4.11659H13.4208L13.0583 4.37909L13.1958 4.80825L12.8333 4.54159L12.4708 4.80409L12.6083 4.37909L12.25 4.11659H12.6958L12.8333 3.69159ZM1.43333 4.77075L1.57499 5.19575H2.01666L1.65833 5.45825L1.79583 5.88742L1.43333 5.62075L1.07499 5.88325L1.20833 5.45825L0.845825 5.19575H1.29999L1.43333 4.77075ZM3.96666 4.77075L4.10416 5.19575H4.55416L4.19166 5.45825L4.32499 5.88325L3.96666 5.62075L3.60416 5.88325L3.74166 5.45825L3.38333 5.19575H3.82499L3.96666 4.77075ZM6.49999 4.77075L6.63749 5.19575H7.08333L6.72499 5.45825L6.86249 5.88742L6.49999 5.62075L6.13749 5.88325L6.27499 5.45825L5.91249 5.19575H6.36249L6.49999 4.77075ZM9.03333 4.77075L9.17083 5.19575H9.62083L9.25833 5.45825L9.39583 5.88742L9.03333 5.62075L8.67083 5.88325L8.81249 5.45825L8.44583 5.19575H8.89166L9.03333 4.77075ZM11.5667 4.77075L11.7042 5.19575H12.15L11.7917 5.45825L11.9292 5.88742L11.5667 5.62075L11.2042 5.88325L11.3417 5.45825L10.9833 5.19575H11.4292L11.5667 4.77075ZM14.1 4.77075L14.2375 5.19575H14.6875L14.3208 5.45825L14.4625 5.88742L14.1 5.62075L13.7375 5.88325L13.875 5.45825L13.5083 5.19575H13.9583L14.1 4.77075ZM2.69999 5.84575L2.83749 6.27492H3.29166L2.92916 6.53325L3.06666 6.96242L2.70416 6.69575L2.34166 6.96242L2.47916 6.53325L2.12083 6.27075H2.56666L2.69999 5.84575ZM5.23333 5.84575L5.37499 6.27492H5.82083L5.45416 6.53325L5.59583 6.96242L5.23333 6.69575L4.87083 6.96242L5.00833 6.53325L4.64583 6.27075H5.09583L5.23333 5.84575ZM7.76666 5.84575L7.90416 6.27492H8.35416L7.99166 6.53325L8.12916 6.96242L7.76666 6.69575L7.40416 6.96242L7.54166 6.53325L7.18333 6.27075H7.62499L7.76666 5.84575ZM10.3 5.84575L10.4417 6.27492H10.8875L10.525 6.53325L10.6625 6.96242L10.3 6.69575L9.94166 6.96242L10.075 6.53325L9.71249 6.27075H10.1667L10.3 5.84575ZM12.8333 5.84575L12.9708 6.27492H13.4208L13.0583 6.53325L13.1958 6.96242L12.8333 6.69575L12.4708 6.96242L12.6083 6.53325L12.25 6.27075H12.6958L12.8333 5.84575ZM1.43333 6.92075L1.57499 7.34992H2.01666L1.65833 7.61242L1.79583 8.03325L1.43333 7.77492L1.07499 8.03325L1.20833 7.60825L0.845825 7.34575H1.29999L1.43333 6.92075ZM3.96666 6.92075L4.10416 7.34992H4.55416L4.19166 7.61242L4.32916 8.03325L3.96666 7.77492L3.60416 8.03325L3.74583 7.60825L3.38333 7.34575H3.82499L3.96666 6.92075ZM6.49999 6.92075L6.63749 7.34992H7.08333L6.72499 7.61242L6.86249 8.03325L6.49999 7.77492L6.13749 8.03325L6.27499 7.60825L5.91249 7.34575H6.36249L6.49999 6.92075ZM9.03333 6.92075L9.17083 7.34992H9.62083L9.25833 7.61242L9.39583 8.03325L9.03333 7.77492L8.67083 8.03325L8.81249 7.60825L8.44583 7.34575H8.89166L9.03333 6.92075ZM11.5667 6.92075L11.7042 7.34992H12.15L11.7917 7.61242L11.9292 8.03325L11.5667 7.77492L11.2042 8.03325L11.3417 7.60825L10.9833 7.34575H11.4292L11.5667 6.92075ZM14.1 6.92075L14.2375 7.34992H14.6875L14.3208 7.61242L14.4625 8.03325L14.1 7.77492L13.7375 8.03325L13.8792 7.60825L13.5125 7.34575H13.9625L14.1 6.92075ZM2.69999 7.99992L2.83749 8.42492H3.29166L2.92916 8.68742L3.06666 9.11659L2.70416 8.84992L2.34166 9.11242L2.47916 8.68742L2.12083 8.42492H2.56666L2.69999 7.99992ZM5.23333 7.99992L5.37499 8.42492H5.82083L5.45416 8.68742L5.59583 9.11659L5.23333 8.84992L4.87083 9.11242L5.00833 8.68742L4.64583 8.42492H5.09583L5.23333 7.99992ZM7.76666 7.99992L7.90416 8.42492H8.35416L7.99166 8.68742L8.12916 9.11659L7.76666 8.84992L7.40416 9.11242L7.54166 8.68742L7.18333 8.42492H7.62499L7.76666 7.99992ZM10.3 7.99992L10.4417 8.42492H10.8875L10.525 8.68742L10.6625 9.11659L10.3 8.84992L9.94166 9.11242L10.075 8.68742L9.71249 8.42492H10.1667L10.3 7.99992ZM12.8333 7.99992L12.9708 8.42492H13.4208L13.0583 8.68742L13.1958 9.11659L12.8333 8.84992L12.4708 9.11242L12.6083 8.68742L12.25 8.42492H12.6958L12.8333 7.99992ZM1.43333 9.07909L1.57499 9.50409H2.01666L1.65833 9.76659L1.79583 10.1916L1.43333 9.92909L1.07499 10.1916L1.20833 9.76242L0.845825 9.49992H1.29999L1.43333 9.07909ZM3.96666 9.07909L4.10416 9.50409H4.55416L4.19166 9.76659L4.32916 10.1916L3.96666 9.92909L3.60416 10.1916L3.74583 9.76242L3.38333 9.49992H3.82499L3.96666 9.07909ZM6.49999 9.07909L6.63749 9.50409H7.08333L6.73333 9.76659L6.87082 10.1916L6.50833 9.92909L6.14583 10.1916L6.28333 9.76242L5.92083 9.49992H6.37082L6.49999 9.07909ZM9.03333 9.07909L9.17083 9.50409H9.62083L9.25833 9.76659L9.39583 10.1916L9.03333 9.92909L8.67083 10.1916L8.81249 9.76242L8.44583 9.49992H8.89166L9.03333 9.07909ZM11.5667 9.07909L11.7042 9.50409H12.15L11.7917 9.76659L11.9292 10.1916L11.5667 9.92909L11.2042 10.1916L11.3417 9.76242L10.9833 9.49992H11.4292L11.5667 9.07909ZM14.1 9.07909L14.2375 9.50409H14.6875L14.3208 9.76659L14.4625 10.1916L14.1 9.92909L13.7375 10.1916L13.8792 9.76242L13.5125 9.49992H13.9625L14.1 9.07909Z" fill="white"/>
</svg>
