<svg width="107" height="36" viewBox="0 0 107 36" fill="none" xmlns="http://www.w3.org/2000/svg">
<path d="M10.4522 4.31638H4V32H8.3811V21.5989H10.4522C14.8333 21.5989 16.984 19.1864 16.984 14.7571V11.1582C16.984 6.72881 14.8333 4.31638 10.4522 4.31638ZM10.4522 8.27119C11.8462 8.27119 12.6029 8.90395 12.6029 10.8814V15.0339C12.6029 17.0113 11.8462 17.6441 10.4522 17.6441H8.3811V8.27119H10.4522Z" fill="#744CED"/>
<path d="M28.4203 4.31638H22.008L17.5472 32H21.5698L22.3266 26.9774H27.7034L28.4601 32H32.8811L28.4203 4.31638ZM24.9951 9.22034L27.106 23.2203H22.8842L24.9951 9.22034Z" fill="#744CED"/>
<path d="M39.0236 32H43.4047V22.8249L48.9409 4.31638H44.7589L41.4133 16.9322L38.0677 4.31638H33.4875L39.0236 22.8249V32Z" fill="#744CED"/>
<path d="M59.3951 11.1186C59.3951 19.1073 50.7126 20.452 50.7126 28.5989V32H63.378V28.0452H55.0937C55.0539 27.8475 55.0539 27.6497 55.0539 27.452C55.0539 22.904 63.7762 19.661 63.7762 10.9605C63.7762 6.53107 61.5459 4 57.2444 4C52.943 4 50.7126 6.53107 50.7126 10.9605V13.6497H54.8547V10.6836C54.8547 8.70621 55.7309 7.9548 57.1249 7.9548C58.5189 7.9548 59.3951 8.62712 59.3951 11.1186Z" fill="#744CED"/>
<path d="M72.5577 4.31638H66.464V32H70.2875V12.4237L73.5534 32H77.6956L80.7225 12.1469V32H84.8647V4.31638H78.7709L75.7838 23.9718L72.5577 4.31638Z" fill="#744CED"/>
<path d="M92.4326 8.27119H100V4.31638H88.0515V32H100V28.0452H92.4326V19.9379H98.4467V15.983H92.4326V8.27119Z" fill="#744CED"/>
</svg>