<svg width="24" height="24" viewBox="0 0 24 24" fill="none" xmlns="http://www.w3.org/2000/svg">
<path fill-rule="evenodd" clip-rule="evenodd" d="M20.2364 7.44857C20.541 7.5791 20.682 7.93183 20.5515 8.23641L20 8.00006C20.5515 8.23641 20.5516 8.23627 20.5515 8.23641L20.5509 8.23775L20.5501 8.23974L20.5475 8.24563L20.539 8.26489C20.5318 8.281 20.5216 8.30357 20.5083 8.33211C20.4816 8.3892 20.4427 8.47025 20.3911 8.57138C20.288 8.7735 20.1341 9.0566 19.9268 9.38923C19.5864 9.93566 19.098 10.6222 18.4496 11.3042L19.2243 12.0789C19.4586 12.3132 19.4586 12.6931 19.2243 12.9274C18.99 13.1617 18.6101 13.1617 18.3758 12.9274L17.5753 12.1269C17.0475 12.5691 16.4423 12.9841 15.7561 13.325L16.5029 14.4728C16.6837 14.7506 16.605 15.1222 16.3273 15.303C16.0495 15.4837 15.6778 15.405 15.4971 15.1273L14.6258 13.7882C14.0023 13.9918 13.3273 14.1301 12.6 14.1798V15.6001C12.6 15.9314 12.3314 16.2001 12 16.2001C11.6687 16.2001 11.4 15.9314 11.4 15.6001V14.1798C10.6952 14.1317 10.0394 14.0002 9.43195 13.8068L8.57269 15.1273C8.39196 15.4051 8.02029 15.4837 7.74254 15.303C7.46479 15.1223 7.38614 14.7506 7.56686 14.4729L8.2968 13.3511C7.60529 13.0134 6.99514 12.6002 6.46282 12.1587L5.69404 12.9274C5.45972 13.1618 5.07983 13.1618 4.84551 12.9274C4.6112 12.6931 4.6112 12.3132 4.84551 12.0789L5.58452 11.3399C4.92488 10.6522 4.42829 9.9573 4.0823 9.40379C3.87196 9.06728 3.71576 8.78057 3.61119 8.57581C3.55887 8.47336 3.51937 8.39121 3.49238 8.33337C3.47889 8.30444 3.46851 8.28156 3.46122 8.26524L3.45258 8.24573L3.44999 8.23977L3.44912 8.23776L3.44879 8.237C3.44873 8.23686 3.44854 8.23641 4.00002 8.00006L3.44879 8.237C3.31826 7.93243 3.4591 7.5791 3.76367 7.44857C4.068 7.31814 4.4204 7.45889 4.55119 7.76295C4.55114 7.76285 4.55123 7.76306 4.55119 7.76295L4.55195 7.76471L4.55681 7.77568C4.56153 7.78623 4.5692 7.80318 4.57987 7.82604C4.6012 7.87177 4.63446 7.94106 4.6799 8.03003C4.77085 8.20813 4.91018 8.46427 5.09986 8.76774C5.48035 9.37644 6.05734 10.1657 6.84457 10.8973C7.53729 11.5411 8.38616 12.1341 9.4014 12.5247C10.165 12.8185 11.0284 13.0001 12 13.0001C12.9934 13.0001 13.8737 12.8103 14.65 12.5047C15.6591 12.1075 16.5022 11.5107 17.1894 10.8656C17.965 10.1376 18.5335 9.35618 18.9084 8.75462C19.0953 8.4547 19.2325 8.20187 19.3221 8.02619C19.3669 7.93842 19.3996 7.87011 19.4206 7.82505C19.4311 7.80253 19.4387 7.78584 19.4433 7.77545L19.4481 7.76466L19.4485 7.7637C19.4485 7.76378 19.4486 7.76363 19.4485 7.7637M20.2364 7.44857C19.9319 7.31807 19.5792 7.45929 19.4485 7.7637L20.2364 7.44857ZM4.55119 7.76295C4.55114 7.76285 4.55123 7.76306 4.55119 7.76295V7.76295Z" fill="#4A3C73"/>
</svg>